<svg xmlns="http://www.w3.org/2000/svg" width="300" height="180" viewBox="0 0 300 180">
    <path fill="#0FC0C5" d="M43,151 C44.1045695,151 45,151.895431 45,153 C45,154.104569 44.1045695,155 43,155 C41.8954305,155 41,154.104569 41,153 C41,151.895431 41.8954305,151 43,151 Z M43,152 C42.4477153,152 42,152.447715 42,153 C42,153.552285 42.4477153,154 43,154 C43.5522847,154 44,153.552285 44,153 C44,152.447715 43.5522847,152 43,152 Z M225,142 C226.104569,142 227,142.895431 227,144 C227,145.104569 226.104569,146 225,146 C223.895431,146 223,145.104569 223,144 C223,142.895431 223.895431,142 225,142 Z M225,143 C224.447715,143 224,143.447715 224,144 C224,144.552285 224.447715,145 225,145 C225.552285,145 226,144.552285 226,144 C226,143.447715 225.552285,143 225,143 Z M28,134 L28,136 L30,136 L30,137 L28,137 L28,139 L27,139 L27,137 L25,137 L25,136 L27,136 L27,134 L28,134 Z M238,128 L238,130 L240,130 L240,131 L238,131 L238,133 L237,133 L237,131 L235,131 L235,130 L237,130 L237,128 L238,128 Z M31.0865529,104 L31.7860562,104.601973 L39.0092158,110.818028 L38.2885251,111.557503 L32.5662359,106.633319 L34.5571715,112.344841 C38.1044929,119.638544 44.0766141,123.826949 52.5279314,124.946038 L53,125.005052 L52.8673924,126 C43.9618222,124.951927 37.5848796,120.664393 33.7704518,113.124005 L33.5649336,112.709486 L31.5525047,106.945165 L30.0467653,114.097579 L29,113.902828 L30.9023282,104.874335 L31.0865529,104 Z M215.132608,53 C224.038178,54.0480733 230.41512,58.3356072 234.229548,65.8759945 L234.435066,66.2905144 L236.447495,72.0548345 L237.953235,64.9024206 L239,65.0971724 L237.097672,74.1256652 L236.913447,75 L236.213944,74.3980265 L228.990784,68.181972 L229.711475,67.4424975 L235.433764,72.3666808 L233.442828,66.6551595 C229.895507,59.3614565 223.923386,55.1730505 215.472069,54.0539624 L215,53.9949484 L215.132608,53 Z M244,38 C245.104569,38 246,38.8954305 246,40 C246,41.1045695 245.104569,42 244,42 C242.895431,42 242,41.1045695 242,40 C242,38.8954305 242.895431,38 244,38 Z M244,39 C243.447715,39 243,39.4477153 243,40 C243,40.5522847 243.447715,41 244,41 C244.552285,41 245,40.5522847 245,40 C245,39.4477153 244.552285,39 244,39 Z M50,32 C51.1045695,32 52,32.8954305 52,34 C52,35.1045695 51.1045695,36 50,36 C48.8954305,36 48,35.1045695 48,34 C48,32.8954305 48.8954305,32 50,32 Z M50,33 C49.4477153,33 49,33.4477153 49,34 C49,34.5522847 49.4477153,35 50,35 C50.5522847,35 51,34.5522847 51,34 C51,33.4477153 50.5522847,33 50,33 Z M216.532289,30.4677113 C216.790599,30.7260211 216.790599,31.144824 216.532289,31.4031338 L215.129155,32.8062676 C214.870845,33.0645775 214.452042,33.0645775 214.193732,32.8062676 C213.935423,32.5479578 213.935423,32.1291549 214.193732,31.8708451 L215.596866,30.4677113 C215.855176,30.2094015 216.273979,30.2094015 216.532289,30.4677113 Z M218.403134,30.4677113 L219.806268,31.8708451 C220.064577,32.1291549 220.064577,32.5479578 219.806268,32.8062676 C219.547958,33.0645775 219.129155,33.0645775 218.870845,32.8062676 L217.467711,31.4031338 C217.209401,31.144824 217.209401,30.7260211 217.467711,30.4677113 C217.726021,30.2094015 218.144824,30.2094015 218.403134,30.4677113 Z M219.806268,27.1937324 C220.064577,27.4520422 220.064577,27.8708451 219.806268,28.1291549 L218.403134,29.5322887 C218.144824,29.7905985 217.726021,29.7905985 217.467711,29.5322887 C217.209401,29.2739789 217.209401,28.855176 217.467711,28.5968662 L218.870845,27.1937324 C219.129155,26.9354225 219.547958,26.9354225 219.806268,27.1937324 Z M215.129155,27.1937324 L216.532289,28.5968662 C216.790599,28.855176 216.790599,29.2739789 216.532289,29.5322887 C216.273979,29.7905985 215.855176,29.7905985 215.596866,29.5322887 L214.193732,28.1291549 C213.935423,27.8708451 213.935423,27.4520422 214.193732,27.1937324 C214.452042,26.9354225 214.870845,26.9354225 215.129155,27.1937324 Z M64.5322887,20.4677113 C64.7905985,20.7260211 64.7905985,21.144824 64.5322887,21.4031338 L63.1291549,22.8062676 C62.8708451,23.0645775 62.4520422,23.0645775 62.1937324,22.8062676 C61.9354225,22.5479578 61.9354225,22.1291549 62.1937324,21.8708451 L63.5968662,20.4677113 C63.855176,20.2094015 64.2739789,20.2094015 64.5322887,20.4677113 Z M66.4031338,20.4677113 L67.8062676,21.8708451 C68.0645775,22.1291549 68.0645775,22.5479578 67.8062676,22.8062676 C67.5479578,23.0645775 67.1291549,23.0645775 66.8708451,22.8062676 L65.4677113,21.4031338 C65.2094015,21.144824 65.2094015,20.7260211 65.4677113,20.4677113 C65.7260211,20.2094015 66.144824,20.2094015 66.4031338,20.4677113 Z M67.8062676,17.1937324 C68.0645775,17.4520422 68.0645775,17.8708451 67.8062676,18.1291549 L66.4031338,19.5322887 C66.144824,19.7905985 65.7260211,19.7905985 65.4677113,19.5322887 C65.2094015,19.2739789 65.2094015,18.855176 65.4677113,18.5968662 L66.8708451,17.1937324 C67.1291549,16.9354225 67.5479578,16.9354225 67.8062676,17.1937324 Z M63.1291549,17.1937324 L64.5322887,18.5968662 C64.7905985,18.855176 64.7905985,19.2739789 64.5322887,19.5322887 C64.2739789,19.7905985 63.855176,19.7905985 63.5968662,19.5322887 L62.1937324,18.1291549 C61.9354225,17.8708451 61.9354225,17.4520422 62.1937324,17.1937324 C62.4520422,16.9354225 62.8708451,16.9354225 63.1291549,17.1937324 Z"/>
    <path fill="#0B8E91" d="M232.499945 104.090028L232.5 113.873 239.145945 108.198028 232.499945 104.090028zM256.910945 82.6310281L232.995945 103.220028 240.183822 107.661883C240.230771 107.680393 240.275347 107.706201 240.315741 107.739166L240.328945 107.753028 246.736 111.714 256.910945 82.6310281zM255.471945 82.5500281L221.117 95.878 232.102945 102.668028 255.471945 82.5500281zM58 61C58.5522847 61 59 61.4477153 59 62L59 88C59 88.5522847 58.5522847 89 58 89L24 89C23.4477153 89 23 88.5522847 23 88L23 62C23 61.4477153 23.4477153 61 24 61L58 61zM58 62.665L41 77.6668108 24 62.666 24 88 58 88 58 62.665zM258.438662 80.7939895C258.448541 80.8108319 258.457057 80.8285027 258.464516 80.8466848 258.466844 80.8545532 258.469627 80.8619649 258.472226 80.8694224 258.4995 80.9440919 258.50853 81.0270599 258.494225 81.1128L258.471953 81.1992594 247.475585 112.632181C247.379658 112.906386 247.075483 113.035935 246.81675 112.930994L246.740747 112.892388 240.038945 108.750028 232.324691 115.338655C232.021806 115.597299 231.565909 115.413656 231.506469 115.041065L231.5 114.958424 231.499945 103.472028 219.737115 96.2015289C219.412946 96.0011609 219.429185 95.5383462 219.736337 95.3508833L219.819157 95.3100653 257.819157 80.568003C257.848399 80.5566589 257.877629 80.5482171 257.906637 80.542472L257.909565 80.5423175 257.919775 80.5400509C258.003439 80.5257835 258.08497 80.5338016 258.159236 80.5591401 258.160955 80.5606779 258.163288 80.561475 258.165616 80.5622897 258.189991 80.5700909 258.213007 80.5803893 258.23508 80.5923045L258.245547 80.5984436C258.266196 80.609925 258.285638 80.622909 258.304095 80.6371401 258.308302 80.6403517 258.31288 80.6439873 258.317405 80.6477133 258.338946 80.6655561 258.358829 80.6848798 258.377045 80.705688 258.377666 80.7064806 258.378293 80.707205 258.378919 80.7079317L258.423 80.768 258.427485 80.7740042 258.438662 80.7939895 258.438662 80.7939895zM57.244 62L24.755 62 41 76.3331892 57.244 62zM103 14L195 14C196.104569 14 197 14.8954305 197 16L197 138.000073C197 139.104642 196.104569 140.000073 195 140.000073L103 140.000073C101.895431 140.000073 101 139.104642 101 138.000073L101 16C101 14.8954305 101.895431 14 103 14z"/>
    <path fill="#0FC0C5" d="M84.9999826,32 L155,32 L155,32 L179,56 L179,156.000125 C179,157.104694 178.104569,158.000125 177,158.000125 L84.9999826,158.000125 C83.8954131,158.000125 82.9999826,157.104694 82.9999826,156.000125 L82.9999826,34 C82.9999826,32.8954305 83.8954131,32 84.9999826,32 Z"/>
    <path fill="#FFF" d="M155,32 L179,56 L156,56 C155.447715,56 155,55.5522847 155,55 L155,32 L155,32 Z" opacity=".3"/>
    <path fill="#FFF" d="M161,132 L161,134 L135,134 L135,132 L161,132 Z M161,120 L161,122 L135,122 L135,120 L161,120 Z M161,108 L161,110 L135,110 L135,108 L161,108 Z M161,96 L161,98 L101,98 L101,96 L161,96 Z M161,84 L161,86 L101,86 L101,84 L161,84 Z M129,70 L129,74 L101,74 L101,70 L129,70 Z"/>
    <path fill="#0B8E91" d="M74,107 L128,107 C128.552285,107 129,107.447715 129,108 L129,134 C129,134.552285 128.552285,135 128,135 L74,135 C73.4477153,135 73,134.552285 73,134 L73,108 C73,107.447715 73.4477153,107 74,107 Z"/>
    <path fill="#FFF" d="M82,128 L82,112 L86.886392,112 C90.3258427,112 92.8876404,113.223242 92.8876404,116.941896 C92.8876404,120.489297 90.3258427,122.12844 86.9812734,122.12844 L84.7515605,122.12844 L84.7515605,128 L82,128 Z M84.7515605,119.853211 L86.7677903,119.853211 C89.0686642,119.853211 90.1835206,118.899083 90.1835206,116.941896 C90.1835206,114.93578 88.9737828,114.275229 86.6729089,114.275229 L84.7515605,114.275229 L84.7515605,119.853211 Z M95.8052434,128 L95.8052434,112 L99.9563046,112 C104.700375,112 107.499376,114.642202 107.499376,119.926606 C107.499376,125.235474 104.700375,128 100.098627,128 L95.8052434,128 Z M98.556804,125.700306 L99.7665418,125.700306 C102.897628,125.700306 104.676654,123.865443 104.676654,119.926606 C104.676654,116.012232 102.897628,114.299694 99.7665418,114.299694 L98.556804,114.299694 L98.556804,125.700306 Z M110.630462,128 L110.630462,112 L120,112 L120,114.397554 L113.382022,114.397554 L113.382022,118.923547 L119.027466,118.923547 L119.027466,121.321101 L113.382022,121.321101 L113.382022,128 L110.630462,128 Z"/>
</svg>
